<svg width="19" height="17" viewBox="0 0 19 17" fill="none" xmlns="http://www.w3.org/2000/svg">
<path d="M18.9166 7.30103L10.2453 0.264961C10.0345 0.0927652 9.77136 -0.0012207 9.49994 -0.0012207C9.22851 -0.0012207 8.96534 0.0927652 8.75461 0.264961L0.0832232 7.30103C0.0603157 7.31945 0.0412702 7.34226 0.0271924 7.36814C0.0131146 7.39402 0.00428499 7.42246 0.00121616 7.45181C-0.00185267 7.48115 0.000900446 7.51082 0.00931567 7.53909C0.0177309 7.56735 0.0316406 7.59365 0.0502371 7.61646L0.51864 8.19752C0.537254 8.22065 0.560215 8.23985 0.58621 8.25404C0.612205 8.26823 0.640723 8.27712 0.670135 8.2802C0.699546 8.28329 0.729273 8.2805 0.757614 8.27201C0.785956 8.26352 0.812357 8.24949 0.835307 8.23072L2.11088 7.19512V16.4681C2.11088 16.609 2.16649 16.7441 2.26546 16.8437C2.36444 16.9434 2.49868 16.9993 2.63866 16.9993H16.3609C16.5009 16.9993 16.6351 16.9434 16.7341 16.8437C16.8331 16.7441 16.8887 16.609 16.8887 16.4681V7.19844L18.1685 8.23736C18.2149 8.27519 18.2743 8.29293 18.3337 8.28671C18.3931 8.28048 18.4475 8.25079 18.4852 8.20416L18.9533 7.6231C18.9889 7.57478 19.005 7.5146 18.9982 7.45479C18.9914 7.39497 18.9622 7.34 18.9166 7.30103ZM7.91644 15.9368V10.6243H11.0831V15.9368H7.91644ZM15.8331 15.9368H12.1387V10.0931C12.1387 9.95219 12.0831 9.81706 11.9841 9.71743C11.8851 9.61781 11.7509 9.56184 11.6109 9.56184H7.38866C7.24868 9.56184 7.11444 9.61781 7.01546 9.71743C6.91649 9.81706 6.86088 9.95219 6.86088 10.0931V15.9368H3.16644V6.33848L9.35826 1.31152C9.39734 1.27932 9.44629 1.26172 9.4968 1.26172C9.54731 1.26172 9.59626 1.27932 9.63534 1.31152L15.8331 6.34113V15.9368Z" fill="#333333"/>
</svg>
