<svg width="21" height="20" viewBox="0 0 21 20" fill="none" xmlns="http://www.w3.org/2000/svg">
<path d="M10.5 1.25C13.0348 1.25 15.0938 3.21094 15.0938 5.625C15.0938 8.03906 13.0348 10 10.5 10C7.96523 10 5.90625 8.03906 5.90625 5.625C5.90625 3.21094 7.96523 1.25 10.5 1.25ZM15.75 13.75C17.9197 13.75 19.6875 15.4336 19.6875 17.5V18.75H1.3125V17.5C1.3125 15.4336 3.08027 13.75 5.25 13.75C8.73633 13.75 8.01035 14.375 10.5 14.375C12.9979 14.375 12.2596 13.75 15.75 13.75ZM10.5 0C7.23926 0 4.59375 2.51953 4.59375 5.625C4.59375 8.73047 7.23926 11.25 10.5 11.25C13.7607 11.25 16.4062 8.73047 16.4062 5.625C16.4062 2.51953 13.7607 0 10.5 0ZM15.75 12.5C11.9602 12.5 12.8379 13.125 10.5 13.125C8.17031 13.125 9.03574 12.5 5.25 12.5C2.3502 12.5 0 14.7383 0 17.5V18.75C0 19.4414 0.586523 20 1.3125 20H19.6875C20.4135 20 21 19.4414 21 18.75V17.5C21 14.7383 18.6498 12.5 15.75 12.5Z" fill="#E6E6E6"/>
</svg>
