<svg width="19" height="18" viewBox="0 0 19 18" fill="none" xmlns="http://www.w3.org/2000/svg">
<path d="M18.3023 1.97789L16.9103 0.65918C16.4468 0.219727 15.839 0 15.2311 0C14.6233 0 14.0154 0.219727 13.5515 0.658828L0.474939 13.0472L0.00365033 17.0627C-0.0557247 17.5683 0.364725 18 0.886854 18C0.919881 18 0.952908 17.9982 0.986678 17.9947L5.22234 17.5514L18.3027 5.15953C19.23 4.28098 19.23 2.85645 18.3023 1.97789ZM4.67721 16.477L1.22492 16.8395L1.60937 13.564L11.4022 4.2866L14.4737 7.19648L4.67721 16.477ZM17.4629 4.3643L15.3131 6.4009L12.2416 3.49102L14.3913 1.45441C14.6155 1.24207 14.9138 1.125 15.2311 1.125C15.5484 1.125 15.8464 1.24207 16.0709 1.45441L17.4629 2.77312C17.9256 3.21187 17.9256 3.92555 17.4629 4.3643Z" fill="#21B558"/>
</svg>
