<svg width="143" height="36" viewBox="0 0 143 36" fill="none" xmlns="http://www.w3.org/2000/svg">
<path d="M3.01635 35.0838C2.18435 35.0838 1.52835 34.8598 1.04835 34.4118C0.568346 33.9638 0.328346 33.3398 0.328346 32.5398V13.9158C0.328346 9.72375 1.62435 6.44375 4.21635 4.07575C6.84035 1.70775 10.4403 0.52375 15.0163 0.52375C18.0243 0.52375 20.6323 1.06775 22.8403 2.15575C25.0483 3.21175 26.7283 4.74775 27.8803 6.76375C29.0643 8.77975 29.6563 11.1638 29.6563 13.9158V32.5398C29.6563 33.3398 29.4163 33.9638 28.9363 34.4118C28.4563 34.8598 27.8003 35.0838 26.9683 35.0838C26.1363 35.0838 25.4643 34.8598 24.9523 34.4118C24.4723 33.9318 24.2323 33.3078 24.2323 32.5398V13.7718C24.2323 10.9238 23.4323 8.73175 21.8323 7.19575C20.2323 5.65975 17.9603 4.89175 15.0163 4.89175C12.0723 4.89175 9.78435 5.67575 8.15235 7.24375C6.55235 8.77975 5.75235 10.9558 5.75235 13.7718V32.5398C5.75235 33.3078 5.49635 33.9318 4.98435 34.4118C4.50435 34.8598 3.84835 35.0838 3.01635 35.0838ZM45.1371 35.0838C41.9051 35.0838 39.3771 34.1558 37.5531 32.2998C35.7291 30.4118 34.8171 27.8038 34.8171 24.4758V13.1478C34.8171 12.3478 35.0571 11.7238 35.5371 11.2758C36.0491 10.8278 36.7211 10.6038 37.5531 10.6038C38.3851 10.6038 39.0251 10.8278 39.4731 11.2758C39.9531 11.7238 40.1931 12.3478 40.1931 13.1478V24.4758C40.1931 26.4598 40.7211 28.0118 41.7771 29.1318C42.8331 30.2198 44.3051 30.7638 46.1931 30.7638C48.5611 30.7638 50.4491 30.0118 51.8571 28.5078C53.2651 26.9718 53.9691 24.9078 53.9691 22.3158V13.1478C53.9691 12.3478 54.2091 11.7238 54.6891 11.2758C55.1691 10.8278 55.8251 10.6038 56.6571 10.6038C57.4891 10.6038 58.1451 10.8278 58.6251 11.2758C59.1051 11.7238 59.3451 12.3478 59.3451 13.1478V32.5398C59.3451 33.3398 59.1211 33.9638 58.6731 34.4118C58.2251 34.8598 57.5851 35.0838 56.7531 35.0838C55.9211 35.0838 55.2651 34.8598 54.7851 34.4118C54.3371 33.9318 54.1131 33.3078 54.1131 32.5398V30.6678C51.7771 33.6118 48.7851 35.0838 45.1371 35.0838ZM82.9255 28.8918C83.4055 29.2758 83.6455 29.7238 83.6455 30.2358C83.6455 30.7798 83.4375 31.3238 83.0215 31.8678C82.3495 32.8598 81.3895 33.6438 80.1415 34.2198C78.8935 34.7958 77.5175 35.0838 76.0135 35.0838C73.6135 35.0838 71.7255 34.4118 70.3495 33.0678C68.9735 31.7238 68.2855 29.8838 68.2855 27.5478V15.3558H66.1255C65.2615 15.3558 64.5735 15.1638 64.0615 14.7798C63.5815 14.3958 63.3415 13.8838 63.3415 13.2438C63.3415 12.5718 63.5815 12.0438 64.0615 11.6598C64.5735 11.2758 65.2615 11.0838 66.1255 11.0838H68.2855V3.49975C68.2855 2.69975 68.5255 2.07575 69.0055 1.62775C69.4855 1.17975 70.1415 0.95575 70.9735 0.95575C71.8055 0.95575 72.4615 1.17975 72.9415 1.62775C73.4215 2.07575 73.6615 2.69975 73.6615 3.49975V11.0838H78.8935C79.7255 11.0838 80.3815 11.2758 80.8615 11.6598C81.3735 12.0438 81.6295 12.5718 81.6295 13.2438C81.6295 13.8838 81.3895 14.3958 80.9095 14.7798C80.4295 15.1638 79.7575 15.3558 78.8935 15.3558H73.6615V27.9798C73.6615 28.8438 73.9015 29.5318 74.3815 30.0438C74.8615 30.5238 75.5335 30.7638 76.3975 30.7638C77.5815 30.7638 78.6375 30.2998 79.5655 29.3718C80.3015 28.6998 80.9735 28.3638 81.5815 28.3638C82.0935 28.3638 82.5415 28.5398 82.9255 28.8918ZM90.3388 35.0838C89.5068 35.0838 88.8508 34.8598 88.3708 34.4118C87.8908 33.9638 87.6508 33.3398 87.6508 32.5398V13.1478C87.6508 12.3478 87.8748 11.7238 88.3228 11.2758C88.8028 10.8278 89.4428 10.6038 90.2428 10.6038C91.0748 10.6038 91.7148 10.8278 92.1628 11.2758C92.6428 11.7238 92.8828 12.3478 92.8828 13.1478V15.1638C94.9628 12.4438 97.6988 11.0838 101.091 11.0838H102.195C103.059 11.0838 103.731 11.2758 104.211 11.6598C104.723 12.0438 104.979 12.5718 104.979 13.2438C104.979 13.9478 104.723 14.4918 104.211 14.8758C103.731 15.2278 103.059 15.4038 102.195 15.4038H100.659C98.3228 15.4038 96.4668 16.1238 95.0908 17.5638C93.7148 18.9718 93.0268 20.9078 93.0268 23.3718V32.5398C93.0268 33.3078 92.7708 33.9318 92.2588 34.4118C91.7788 34.8598 91.1388 35.0838 90.3388 35.0838ZM110.889 6.90775C109.865 6.90775 109.017 6.61975 108.345 6.04375C107.705 5.43575 107.385 4.66775 107.385 3.73975C107.385 2.81175 107.705 2.05975 108.345 1.48375C109.017 0.87575 109.865 0.57175 110.889 0.57175C111.913 0.57175 112.761 0.87575 113.433 1.48375C114.105 2.05975 114.441 2.81175 114.441 3.73975C114.441 4.66775 114.105 5.43575 113.433 6.04375C112.761 6.61975 111.913 6.90775 110.889 6.90775ZM110.889 35.0838C110.057 35.0838 109.401 34.8598 108.921 34.4118C108.473 33.9638 108.249 33.3398 108.249 32.5398V13.1478C108.249 12.3478 108.473 11.7238 108.921 11.2758C109.401 10.8278 110.057 10.6038 110.889 10.6038C111.721 10.6038 112.377 10.8278 112.857 11.2758C113.369 11.7238 113.625 12.3478 113.625 13.1478V32.5398C113.625 33.3398 113.369 33.9638 112.857 34.4118C112.377 34.8598 111.721 35.0838 110.889 35.0838ZM128.932 35.0838C125.892 35.0838 123.46 34.3638 121.636 32.9238C119.812 31.4838 118.9 29.5638 118.9 27.1638C118.9 24.7958 119.86 22.9078 121.78 21.4998C123.732 20.0918 126.356 19.3878 129.652 19.3878C132.852 19.3878 135.348 20.1238 137.14 21.5958V19.7718C137.14 18.1718 136.628 16.9558 135.604 16.1238C134.612 15.2598 133.14 14.8278 131.188 14.8278C128.436 14.8278 126.068 15.4358 124.084 16.6518C123.412 17.0358 122.804 17.2278 122.26 17.2278C121.684 17.2278 121.156 16.9718 120.676 16.4598C120.356 16.1078 120.196 15.6918 120.196 15.2118C120.196 14.4438 120.532 13.8358 121.204 13.3878C122.356 12.5238 123.812 11.8518 125.572 11.3718C127.332 10.8598 129.172 10.6038 131.092 10.6038C134.708 10.6038 137.54 11.4198 139.588 13.0518C141.636 14.6838 142.66 16.9398 142.66 19.8198V32.6838C142.66 33.4198 142.42 34.0118 141.94 34.4598C141.46 34.8758 140.804 35.0838 139.972 35.0838C139.14 35.0838 138.484 34.8758 138.004 34.4598C137.556 34.0438 137.332 33.4678 137.332 32.7318V31.8198C135.444 33.9958 132.644 35.0838 128.932 35.0838ZM130.084 31.1478C132.26 31.1478 133.988 30.7958 135.268 30.0918C136.548 29.3558 137.188 28.3638 137.188 27.1158C137.188 25.8998 136.564 24.9398 135.316 24.2358C134.068 23.5318 132.356 23.1798 130.18 23.1798C128.292 23.1798 126.82 23.5318 125.764 24.2358C124.74 24.9398 124.228 25.9158 124.228 27.1638C124.228 28.4438 124.724 29.4358 125.716 30.1398C126.74 30.8118 128.196 31.1478 130.084 31.1478Z" fill="#EE7026"/>
</svg>
