<svg width="191" height="47" viewBox="0 0 191 47" fill="none" xmlns="http://www.w3.org/2000/svg">
<path d="M4.51625 46.64C3.40692 46.64 2.53225 46.3413 1.89225 45.744C1.25225 45.1467 0.93225 44.3147 0.93225 43.248V18.416C0.93225 12.8267 2.66025 8.45333 6.11625 5.296C9.61492 2.13866 14.4149 0.559998 20.5163 0.559998C24.5269 0.559998 28.0043 1.28533 30.9482 2.736C33.8923 4.144 36.1323 6.192 37.6683 8.88C39.2469 11.568 40.0363 14.7467 40.0363 18.416V43.248C40.0363 44.3147 39.7163 45.1467 39.0763 45.744C38.4363 46.3413 37.5616 46.64 36.4523 46.64C35.3429 46.64 34.4469 46.3413 33.7643 45.744C33.1243 45.104 32.8043 44.272 32.8043 43.248V18.224C32.8043 14.4267 31.7376 11.504 29.6043 9.456C27.4709 7.408 24.4416 6.384 20.5163 6.384C16.5909 6.384 13.5403 7.42933 11.3643 9.52C9.23092 11.568 8.16425 14.4693 8.16425 18.224V43.248C8.16425 44.272 7.82292 45.104 7.14025 45.744C6.50025 46.3413 5.62558 46.64 4.51625 46.64ZM60.6772 46.64C56.3679 46.64 52.9973 45.4027 50.5653 42.928C48.1333 40.4107 46.9173 36.9333 46.9173 32.496V17.392C46.9173 16.3253 47.2373 15.4933 47.8773 14.896C48.5599 14.2987 49.4559 14 50.5653 14C51.6746 14 52.5279 14.2987 53.1253 14.896C53.7653 15.4933 54.0853 16.3253 54.0853 17.392V32.496C54.0853 35.1413 54.7893 37.2107 56.1973 38.704C57.6053 40.1547 59.5679 40.88 62.0853 40.88C65.2426 40.88 67.7599 39.8773 69.6373 37.872C71.5146 35.824 72.4533 33.072 72.4533 29.616V17.392C72.4533 16.3253 72.7733 15.4933 73.4133 14.896C74.0533 14.2987 74.9279 14 76.0373 14C77.1466 14 78.0213 14.2987 78.6613 14.896C79.3013 15.4933 79.6213 16.3253 79.6213 17.392V43.248C79.6213 44.3147 79.3226 45.1467 78.7253 45.744C78.1279 46.3413 77.2746 46.64 76.1653 46.64C75.0559 46.64 74.1813 46.3413 73.5413 45.744C72.9439 45.104 72.6453 44.272 72.6453 43.248V40.752C69.5306 44.6773 65.5413 46.64 60.6772 46.64ZM111.062 38.384C111.702 38.896 112.022 39.4933 112.022 40.176C112.022 40.9013 111.744 41.6267 111.19 42.352C110.294 43.6747 109.014 44.72 107.35 45.488C105.686 46.256 103.851 46.64 101.846 46.64C98.6458 46.64 96.1284 45.744 94.2938 43.952C92.4591 42.16 91.5417 39.7067 91.5417 36.592V20.336H88.6618C87.5098 20.336 86.5924 20.08 85.9098 19.568C85.2698 19.056 84.9498 18.3733 84.9498 17.52C84.9498 16.624 85.2698 15.92 85.9098 15.408C86.5924 14.896 87.5098 14.64 88.6618 14.64H91.5417V4.528C91.5417 3.46133 91.8617 2.62933 92.5017 2.032C93.1418 1.43466 94.0164 1.136 95.1258 1.136C96.2351 1.136 97.1098 1.43466 97.7498 2.032C98.3898 2.62933 98.7098 3.46133 98.7098 4.528V14.64H105.686C106.795 14.64 107.67 14.896 108.31 15.408C108.992 15.92 109.334 16.624 109.334 17.52C109.334 18.3733 109.014 19.056 108.374 19.568C107.734 20.08 106.838 20.336 105.686 20.336H98.7098V37.168C98.7098 38.32 99.0298 39.2373 99.6698 39.92C100.31 40.56 101.206 40.88 102.358 40.88C103.936 40.88 105.344 40.2613 106.582 39.024C107.563 38.128 108.459 37.68 109.27 37.68C109.952 37.68 110.55 37.9147 111.062 38.384ZM120.946 46.64C119.837 46.64 118.962 46.3413 118.322 45.744C117.682 45.1467 117.362 44.3147 117.362 43.248V17.392C117.362 16.3253 117.661 15.4933 118.258 14.896C118.898 14.2987 119.752 14 120.818 14C121.928 14 122.781 14.2987 123.378 14.896C124.018 15.4933 124.338 16.3253 124.338 17.392V20.08C127.112 16.4533 130.76 14.64 135.282 14.64H136.754C137.906 14.64 138.802 14.896 139.442 15.408C140.125 15.92 140.466 16.624 140.466 17.52C140.466 18.4587 140.125 19.184 139.442 19.696C138.802 20.1653 137.906 20.4 136.754 20.4H134.706C131.592 20.4 129.117 21.36 127.282 23.28C125.448 25.1573 124.53 27.7387 124.53 31.024V43.248C124.53 44.272 124.189 45.104 123.506 45.744C122.866 46.3413 122.013 46.64 120.946 46.64ZM148.347 9.072C146.981 9.072 145.851 8.688 144.955 7.92C144.101 7.10933 143.675 6.08533 143.675 4.848C143.675 3.61066 144.101 2.608 144.955 1.84C145.851 1.02933 146.981 0.623997 148.347 0.623997C149.712 0.623997 150.843 1.02933 151.739 1.84C152.635 2.608 153.083 3.61066 153.083 4.848C153.083 6.08533 152.635 7.10933 151.739 7.92C150.843 8.688 149.712 9.072 148.347 9.072ZM148.347 46.64C147.237 46.64 146.363 46.3413 145.723 45.744C145.125 45.1467 144.827 44.3147 144.827 43.248V17.392C144.827 16.3253 145.125 15.4933 145.723 14.896C146.363 14.2987 147.237 14 148.347 14C149.456 14 150.331 14.2987 150.971 14.896C151.653 15.4933 151.995 16.3253 151.995 17.392V43.248C151.995 44.3147 151.653 45.1467 150.971 45.744C150.331 46.3413 149.456 46.64 148.347 46.64ZM172.403 46.64C168.35 46.64 165.107 45.68 162.675 43.76C160.243 41.84 159.027 39.28 159.027 36.08C159.027 32.9227 160.307 30.4053 162.867 28.528C165.47 26.6507 168.969 25.712 173.363 25.712C177.63 25.712 180.958 26.6933 183.347 28.656V26.224C183.347 24.0907 182.665 22.4693 181.299 21.36C179.977 20.208 178.014 19.632 175.411 19.632C171.742 19.632 168.585 20.4427 165.939 22.064C165.043 22.576 164.233 22.832 163.507 22.832C162.739 22.832 162.035 22.4907 161.395 21.808C160.969 21.3387 160.755 20.784 160.755 20.144C160.755 19.12 161.203 18.3093 162.099 17.712C163.635 16.56 165.577 15.664 167.923 15.024C170.27 14.3413 172.723 14 175.283 14C180.105 14 183.881 15.088 186.611 17.264C189.342 19.44 190.707 22.448 190.707 26.288V43.44C190.707 44.4213 190.387 45.2107 189.747 45.808C189.107 46.3627 188.233 46.64 187.123 46.64C186.014 46.64 185.139 46.3627 184.499 45.808C183.902 45.2533 183.603 44.4853 183.603 43.504V42.288C181.086 45.1893 177.353 46.64 172.403 46.64ZM173.939 41.392C176.841 41.392 179.145 40.9227 180.851 39.984C182.558 39.0027 183.411 37.68 183.411 36.016C183.411 34.3947 182.579 33.1147 180.915 32.176C179.251 31.2373 176.969 30.768 174.067 30.768C171.55 30.768 169.587 31.2373 168.179 32.176C166.814 33.1147 166.131 34.416 166.131 36.08C166.131 37.7867 166.793 39.1093 168.115 40.048C169.481 40.944 171.422 41.392 173.939 41.392Z" fill="#EE7026"/>
</svg>
