<svg width="16" height="16" viewBox="0 0 16 16" fill="none" xmlns="http://www.w3.org/2000/svg">
<path d="M6.61009 12.5594C8.00408 12.5594 9.30571 12.1306 10.3638 11.416L14.3443 15.1795C14.529 15.3542 14.7725 15.4415 15.0245 15.4415C15.5703 15.4415 15.965 15.0446 15.965 14.5364C15.965 14.2982 15.881 14.0759 15.6963 13.9012L11.741 10.1536C12.5724 9.1214 13.0678 7.84308 13.0678 6.45361C13.0678 3.09504 10.1623 0.347839 6.61009 0.347839C3.04951 0.347839 0.152344 3.09504 0.152344 6.45361C0.152344 9.81217 3.04951 12.5594 6.61009 12.5594ZM6.61009 11.2414C3.83049 11.2414 1.54634 9.07376 1.54634 6.45361C1.54634 3.83345 3.83049 1.66586 6.61009 1.66586C9.38129 1.66586 11.6738 3.83345 11.6738 6.45361C11.6738 9.07376 9.38129 11.2414 6.61009 11.2414Z" fill="#333333" fill-opacity="0.5"/>
</svg>
