<svg width="30" height="34" viewBox="0 0 30 34" fill="none" xmlns="http://www.w3.org/2000/svg">
<g clip-path="url(#clip0_1326_114)">
<path d="M14.9997 31.875C16.1823 31.875 17.1425 30.9201 17.1425 29.748H19.2854C19.2854 32.0928 17.3622 34 14.9997 34C12.6372 34 10.714 32.0928 10.714 29.748H12.8568C12.8568 30.9201 13.8171 31.875 14.9997 31.875ZM0.978687 22.2335C2.85101 20.4657 4.28271 18.6157 4.28271 12.3449C4.28271 7.05965 8.52757 2.74922 13.9282 2.22793V1.0625C13.9282 0.475469 14.4077 0 14.9997 0C15.5916 0 16.0711 0.475469 16.0711 1.0625V2.22859C21.4718 2.74988 25.7166 7.05965 25.7166 12.3449C25.7166 18.615 27.149 20.4657 29.0213 22.2335C29.9568 23.1167 30.2521 24.4521 29.7747 25.6355C29.2872 26.8441 28.114 27.625 26.7854 27.625H3.21396C1.88539 27.625 0.71217 26.8434 0.224669 25.6348C-0.252787 24.4514 0.0431957 23.1167 0.978687 22.2335ZM3.21396 25.5H26.7854C27.7383 25.5 28.2144 24.4063 27.5434 23.7728C25.2091 21.5688 23.5738 19.1018 23.5738 12.3456C23.5738 7.87113 19.7387 4.25 14.9997 4.25C10.2613 4.25 6.42556 7.87047 6.42556 12.3449C6.42556 19.0752 4.80436 21.5555 2.45592 23.7721C1.78226 24.4089 2.26507 25.5 3.21396 25.5Z" fill="#9E9E9E"/>
</g>
<defs>
<clipPath id="clip0_1326_114">
<rect width="30" height="34" fill="white" transform="matrix(-1 0 0 1 30 0)"/>
</clipPath>
</defs>
</svg>
